<?xml version="1.0" standalone="no"?>
<!DOCTYPE svg PUBLIC "-//W3C//DTD SVG 20010904//EN"
 "http://www.w3.org/TR/2001/REC-SVG-20010904/DTD/svg10.dtd">
<svg version="1.0" xmlns="http://www.w3.org/2000/svg"
 width="512.000000pt" height="512.000000pt" viewBox="0 0 512.000000 512.000000"
 preserveAspectRatio="xMidYMid meet">

<g transform="translate(0.000000,512.000000) scale(0.100000,-0.100000)"
fill="#000000" stroke="none">
<path d="M634 3750 c-155 -23 -297 -110 -375 -231 -68 -107 -101 -291 -79
-447 25 -181 72 -309 189 -507 l51 -85 -181 0 -181 0 -29 -29 c-38 -38 -38
-74 0 -112 l29 -29 222 0 221 0 16 -37 c31 -75 53 -170 73 -318 47 -348 102
-540 166 -581 24 -16 26 -16 44 2 47 49 112 272 155 529 34 208 55 271 111
334 56 62 112 85 188 79 100 -8 184 -81 220 -188 9 -25 27 -112 41 -195 49
-287 116 -516 165 -560 68 -61 146 152 200 545 24 178 40 252 70 333 l21 57
589 0 589 0 20 -54 c32 -87 49 -161 70 -321 47 -346 103 -534 169 -565 23 -10
28 -9 44 12 46 61 105 267 149 526 33 201 49 251 95 314 63 87 186 122 279 79
50 -22 110 -88 136 -148 11 -25 35 -134 54 -242 34 -189 66 -328 100 -421 22
-63 63 -130 79 -130 29 0 73 68 99 151 29 93 67 289 92 477 17 124 38 214 68
285 l16 37 221 0 222 0 29 29 c38 38 38 74 0 112 l-29 29 -181 0 -181 0 46 78
c77 130 133 247 158 334 86 300 41 568 -123 721 -187 175 -538 193 -767 40
-31 -21 -69 -46 -83 -55 -40 -28 -72 -22 -132 23 -64 49 -173 101 -249 120
-71 17 -249 17 -320 0 -207 -50 -353 -198 -396 -403 -17 -79 -15 -322 2 -336
9 -8 342 0 547 13 l117 7 0 130 c0 124 1 130 25 153 l24 25 334 0 334 0 24
-26 c21 -22 24 -37 27 -115 3 -75 7 -89 20 -89 10 0 109 14 220 32 185 29 206
31 230 17 37 -21 51 -78 28 -114 -23 -36 -39 -40 -258 -75 -106 -17 -203 -33
-215 -36 -21 -4 -22 -9 -25 -153 -3 -142 -4 -151 -27 -175 l-24 -26 -334 0
-334 0 -24 25 c-24 23 -25 30 -25 141 l0 117 -67 -7 c-38 -3 -175 -9 -305 -13
-191 -5 -238 -9 -238 -20 0 -17 65 -146 124 -246 25 -43 46 -80 46 -82 0 -3
-225 -5 -500 -5 -275 0 -500 2 -500 5 0 2 21 39 46 82 59 100 124 229 124 246
0 11 -47 15 -237 20 -131 4 -268 10 -305 13 l-68 7 0 -117 c0 -111 -1 -118
-25 -141 l-24 -25 -334 0 -334 0 -24 26 c-23 24 -24 33 -27 175 -3 144 -4 149
-25 153 -12 3 -109 19 -215 36 -219 35 -235 39 -258 75 -23 36 -9 93 28 114
24 14 45 12 230 -17 111 -18 210 -32 220 -32 13 0 17 14 20 89 3 78 6 93 27
115 l24 26 334 0 334 0 24 -25 c24 -23 25 -29 25 -153 l0 -129 88 -7 c48 -3
194 -9 325 -13 185 -5 240 -9 244 -19 3 -8 -4 -45 -16 -83 -12 -38 -21 -72
-21 -75 0 -3 144 -6 321 -6 251 0 320 3 317 13 -2 6 -12 45 -23 85 l-19 72
-277 0 -276 0 8 43 c13 67 10 236 -6 310 -42 200 -190 349 -395 398 -71 17
-249 17 -320 0 -76 -19 -185 -71 -249 -120 -60 -45 -92 -51 -132 -23 -14 9
-52 34 -83 55 -128 86 -303 122 -472 97z"/>
<path d="M1020 3120 c0 -24 5 -42 13 -45 6 -2 91 -11 187 -20 96 -8 187 -17
203 -20 l27 -4 0 64 0 65 -215 0 -215 0 0 -40z"/>
<path d="M3670 3095 l0 -64 28 4 c15 3 106 12 202 20 96 9 181 18 188 20 7 3
12 21 12 45 l0 40 -215 0 -215 0 0 -65z"/>
<path d="M1020 2820 l0 -80 215 0 215 0 0 59 0 60 -42 5 c-51 7 -356 36 -375
36 -10 0 -13 -20 -13 -80z"/>
<path d="M3860 2879 c-96 -10 -178 -18 -182 -18 -5 -1 -8 -28 -8 -61 l0 -60
215 0 215 0 0 80 0 80 -32 -1 c-18 -1 -112 -10 -208 -20z"/>
</g>
</svg>
